HIERARCHY
ROOT Hips
{
  OFFSET -69.4423 88.0299 51.6846
  CHANNELS 6 Xposition Yposition Zposition Zrotation Xrotation Yrotation
  JOINT Spine
  {
    OFFSET 12.0259 -0.162853 1.93176e-005
    CHANNELS 3 Zrotation Xrotation Yrotation
    JOINT Spine1
    {
      OFFSET 15.3169 -0.0121909 0
      CHANNELS 3 Zrotation Xrotation Yrotation
      JOINT Spine2
      {
        OFFSET 15.3176 -0.0121922 0
        CHANNELS 3 Zrotation Xrotation Yrotation
        JOINT Neck
        {
          OFFSET 19.9142 1.56236 0
          CHANNELS 3 Zrotation Xrotation Yrotation
          JOINT Head
          {
            OFFSET 6.92646 0 0
            CHANNELS 3 Zrotation Xrotation Yrotation
            End Site
            {
              OFFSET 20.7666 0 0
            }
          }
          JOINT LeftShoulder
          {
            OFFSET -4.94072 -1.14703 8.14416
            CHANNELS 3 Zrotation Xrotation Yrotation
            JOINT LeftArm
            {
              OFFSET 14.108 0 -2.74767e-005
              CHANNELS 3 Zrotation Xrotation Yrotation
              JOINT LeftForeArm
              {
                OFFSET 28.5802 -0.0783412 -0.0284884
                CHANNELS 3 Zrotation Xrotation Yrotation
                JOINT LeftHand
                {
                  OFFSET 27.092 0 0
                  CHANNELS 3 Zrotation Xrotation Yrotation
                  End Site
                  {
                    OFFSET 9.55928 -0.186424 0.145352
                  }
                }
              }
            }
          }
          JOINT RightShoulder
          {
            OFFSET -7.15748 -1.33027 -6.24935
            CHANNELS 3 Zrotation Xrotation Yrotation
            JOINT RightArm
            {
              OFFSET 14.108 0 1.82997e-005
              CHANNELS 3 Zrotation Xrotation Yrotation
              JOINT RightForeArm
              {
                OFFSET 28.5802 -0.0707221 2.30684e-005
                CHANNELS 3 Zrotation Xrotation Yrotation
                JOINT RightHand
                {
                  OFFSET 27.092 0 -1.30073e-005
                  CHANNELS 3 Zrotation Xrotation Yrotation
                  End Site
                  {
                    OFFSET 9.55929 -0.186417 -0.145354
                  }
                }
              }
            }
          }
        }
      }
    }
  }
  JOINT LeftUpLeg
  {
    OFFSET 0.00499725 -0.534999 8.837
    CHANNELS 3 Zrotation Xrotation Yrotation
    JOINT LeftLeg
    {
      OFFSET 39.9035 -0.00124594 0.000252775
      CHANNELS 3 Zrotation Xrotation Yrotation
      JOINT LeftFoot
      {
        OFFSET 39.6689 0 0
        CHANNELS 3 Zrotation Xrotation Yrotation
        JOINT LeftToe
        {
          OFFSET 10.1624 13.6296 0
          CHANNELS 3 Zrotation Xrotation Yrotation
          End Site
          {
            OFFSET 8.38147 0 0
          }
        }
      }
    }
  }
  JOINT RightUpLeg
  {
    OFFSET 0.00499725 -0.535 -8.837
    CHANNELS 3 Zrotation Xrotation Yrotation
    JOINT RightLeg
    {
      OFFSET 39.9036 -0.000268477 0.000106433
      CHANNELS 3 Zrotation Xrotation Yrotation
      JOINT RightFoot
      {
        OFFSET 39.6689 1.17892e-005 0
        CHANNELS 3 Zrotation Xrotation Yrotation
        JOINT RightToe
        {
          OFFSET 10.1624 13.6296 0
          CHANNELS 3 Zrotation Xrotation Yrotation
          End Site
          {
            OFFSET 8.38147 0 0
          }
        }
      }
    }
  }
}
MOTION
Frames:	13
Frame Time:	0.0333333
54.4036 88.5773 80.5864 94.7002 27.2142 2.10097 1.20183 -1.38292 -0.0374969 2.4038 -2.76591 -0.0458079 2.40379 -2.76589 -0.0458278 -15.7407 -6.95824 -16.1777 43.8175 -5.96333 24.9581 -167.954 -9.99714 -97.7928 -17.5683 6.9857 76.6269 -23.139 2.35426 -14.4656 16.3746 -85.5498 18.7042 -168.057 -12.2696 70.7972 -12.9593 -4.99119 -82.3527 -29.5486 -4.36354 17.6711 10.0153 87.5127 -9.92331 13.4648 5.51697 177.17 -1.93921 0.901033 -1.76171 -6.64625 -21.5299 -4.75045 90 -2.22639e-014 -1.59028e-014 -33.2034 -11.2979 172.109 -29.8613 0.0455126 0.696349 -8.58425 17.848 5.63461 90 2.70347e-014 2.46493e-014 
52.3086 88.8896 80.8893 95.0176 24.724 2.23882 1.22873 -1.40318 -0.0670221 2.45695 -2.80195 -0.10387 2.45695 -2.80196 -0.103877 -16.2102 -6.60451 -15.6135 43.473 -5.64066 24.2212 -167.31 -9.59418 -97.2692 -16.0585 5.65744 76.797 -24.3383 2.59646 -15.1627 23.9693 -86.8921 26.3121 -167.395 -11.9067 71.3324 -10.4705 -4.49552 -82.9246 -28.1498 -3.99331 16.9454 6.32929 86.0549 -6.21635 14.6083 6.18197 177.036 -1.9357 0.906527 -1.70727 -8.21673 -21.5636 -5.38655 90 -6.36111e-015 -1.27222e-014 -32.6651 -10.9335 173.122 -29.9874 0.0191912 0.66039 -9.40002 14.4746 4.93024 90 2.70347e-014 2.5842e-014 
49.9883 88.9498 81.0676 95.3821 22.5901 2.321 1.23219 -1.41966 -0.127977 2.46237 -2.84125 -0.225321 2.46236 -2.84128 -0.225329 -16.5879 -6.36524 -15.1064 42.9964 -5.38813 23.7672 -166.81 -9.31602 -96.8284 -16.0443 5.19476 76.9332 -25.9118 2.90847 -16.0258 92.0031 -88.7103 94.4091 -166.869 -11.6204 71.8381 -8.39404 -4.52666 -83.7902 -27.0744 -3.70906 16.3703 4.48694 84.7013 -4.37694 15.6115 6.56499 177.247 -1.90362 0.88203 -1.62946 -12.2991 -20.4033 -6.76877 90 -3.18055e-015 -1.90833e-014 -31.9911 -10.4069 174.055 -30.732 -0.0316931 0.654005 -8.14248 13.1087 4.14928 90 1.66979e-014 1.66979e-014 
47.3817 89.2223 81.0565 95.5878 20.6889 1.95706 1.13191 -1.48575 -0.034138 2.26408 -2.97141 -0.0387787 2.26408 -2.97142 -0.0387792 -16.7763 -6.1632 -15.1372 43.1384 -5.16738 23.4663 -166.623 -9.18768 -96.9621 -17.1601 5.78141 77.4528 -27.2298 3.16883 -16.7316 150.695 -87.3418 153.108 -166.67 -11.4531 71.7823 -7.12549 -5.53522 -84.3797 -26.1039 -3.46259 15.8531 3.89167 84.0915 -3.74828 14.3779 6.98094 178.289 -6.1489 0.825781 -1.34091 -14.2628 -19.8063 -6.96292 90 1.59028e-015 -0 -30.397 -10.1865 175.508 -30.5851 -0.0983197 0.645749 -6.61537 12.6633 3.60419 90 0 -2.38542e-015 
44.4711 89.4709 80.9648 95.1631 18.382 1.61026 1.16379 -1.42601 0.00594269 2.32882 -2.85111 0.0410389 2.32882 -2.85112 0.0410296 -16.8627 -5.87792 -14.8185 43.2438 -4.78676 22.9655 -166.442 -8.85941 -96.7615 -18.2244 6.20899 77.6627 -28.2676 3.3776 -17.2839 157.053 -86.7608 159.422 -166.474 -11.0981 72.0242 -6.92466 -6.19348 -84.9166 -24.7928 -3.14284 15.1555 3.41342 83.2741 -3.25092 14.9228 8.26893 179.419 -7.96051 0.70629 -0.994582 -18.1097 -18.2443 -7.19077 90 -9.54166e-015 -9.54166e-015 -27.8176 -11.0034 177.213 -29.7515 -0.161311 0.616633 -6.32255 11.0044 3.10121 90 1.27222e-014 1.35174e-014 
41.6313 89.7629 80.8226 95.0545 16.2143 1.4417 1.12499 -1.28847 0.013639 2.25116 -2.57594 0.0527637 2.25115 -2.57598 0.0527548 -16.7177 -5.74031 -14.9439 43.0834 -4.46445 23.0136 -166.579 -8.73786 -96.9519 -18.6519 5.98036 77.904 -28.6053 3.44136 -17.4897 130.216 -88.5963 132.524 -166.62 -10.9856 71.8205 -6.25826 -6.70143 -85.2287 -23.6639 -2.87908 14.5474 2.90226 82.2886 -2.73078 10.9083 9.52901 -179.043 -16.7805 0.646646 -0.546101 -21.4446 -15.0144 -7.54556 90 -1.90833e-014 -2.22639e-014 -25.2704 -10.2857 178.941 -28.7037 -0.233964 0.589899 -5.77617 10.1769 2.78817 90 -7.95139e-015 -9.93923e-015 
38.8757 90.0283 80.5724 94.7949 14.201 0.509474 1.15388 -1.12798 0.147504 2.31135 -2.25228 0.317951 2.31133 -2.25227 0.317934 -16.6906 -5.58043 -14.3524 43.0946 -4.53037 22.1601 -166.488 -8.40928 -96.4464 -19.7968 6.1116 78.1019 -29.0448 3.53583 -17.7376 143.211 -88.1202 145.498 -166.512 -10.6625 72.3286 -5.84605 -6.73161 -85.6098 -22.572 -2.63852 13.9605 2.56966 81.2349 -2.38036 5.82938 9.64158 -176.391 -26.5445 0.48953 -0.202705 -24.9906 -12.5372 -7.70171 90 9.54166e-015 -0 -22.0383 -9.5591 -178.529 -27.0169 -0.317071 0.572273 -4.59885 10.0548 2.53465 90 1.59028e-015 -2.78299e-015 
36.2566 90.2479 80.4244 94.257 11.9788 -0.298553 1.22769 -0.83885 0.307159 2.46027 -1.67045 0.632477 2.46026 -1.67043 0.632459 -16.6737 -5.44159 -14.5476 43.5052 -4.20216 22.2235 -166.517 -8.33 -96.6772 -20.1802 5.65869 78.8736 -29.3013 3.60315 -17.9304 133.659 -88.4649 135.912 -166.53 -10.6289 72.0801 -5.50333 -6.56787 -85.4884 -21.813 -2.4773 13.5499 2.46735 80.7762 -2.26373 0.578395 8.83501 -174.194 -36.6602 0.392535 0.0336465 -26.6343 -7.92782 -5.75452 90 6.36111e-015 -0 -18.5331 -9.62794 -176.61 -24.9171 -0.403083 0.534849 -4.16889 8.24605 2.0542 90 -4.77083e-015 -8.34896e-015 
33.6445 90.3792 80.3994 93.8611 9.55105 -1.04686 1.36671 -0.540136 0.448311 2.73778 -1.06892 0.909591 2.73778 -1.06891 0.909584 -16.8485 -5.26684 -14.6294 43.4332 -3.88712 22.2035 -166.317 -8.24399 -96.7598 -20.4374 4.81663 79.6506 -29.5765 3.67875 -18.1312 126.975 -88.6559 129.272 -166.297 -10.5683 71.9674 -5.61732 -5.58131 -85.3036 -21.3987 -2.38726 13.3123 2.25445 79.8423 -2.04435 -4.19191 6.86161 -172.895 -45.01 0.608941 0.0439027 -20.7104 -0.117452 -1.11841 90 7.95139e-015 4.77083e-015 -15.2593 -9.65203 -175.046 -23.0139 -0.483391 0.487673 -3.59992 6.04426 1.4021 90 9.54166e-015 9.93923e-015 
31.08 90.36 80.3712 93.4744 6.88402 -1.57466 1.37512 -0.18847 0.497332 2.73889 -0.364652 0.999186 2.73888 -0.364663 0.999174 -16.6447 -5.14654 -14.3275 43.5414 -3.69183 21.9186 -166.491 -8.05254 -96.5638 -20.7467 5.22266 80.7011 -30.1259 3.79825 -18.434 139.942 -88.3921 142.245 -166.414 -10.343 72.2141 -7.46249 -5.40152 -85.1799 -21.4508 -2.39601 13.3478 2.3406 80.3527 -2.12322 -8.40982 5.3083 -172.254 -50.5006 0.70772 0.0190117 -14.2871 4.37976 0.738087 90 -1.59028e-014 -1.90833e-014 -12.5184 -9.0038 -173.702 -22.0668 -0.555318 0.437673 -2.5432 4.48276 0.852261 90 6.36111e-015 5.1684e-015 
28.6316 90.1229 80.3618 93.0334 4.38706 -1.82753 1.381 0.214366 0.496339 2.76012 0.440988 0.987528 2.76012 0.440998 0.98752 -16.4408 -5.07426 -14.3291 43.6644 -3.42291 22.0147 -166.72 -7.99231 -96.6378 -21.8272 5.87917 81.7599 -30.4264 3.85696 -18.6017 146.385 -88.14 148.715 -166.593 -10.2556 72.1858 -8.60654 -4.90828 -85.1251 -21.9384 -2.49425 13.6158 2.46126 80.8364 -2.24517 -12.2825 3.79911 -172.146 -53.6989 0.71258 -0.0255602 -8.52486 6.39903 1.08466 90 8.74653e-015 7.55382e-015 -10.5545 -7.53384 -172.736 -22.2149 -0.610761 0.387965 -1.15792 4.04787 0.542239 90 2.22639e-014 1.86858e-014 
26.2042 89.9197 80.4673 92.5868 2.05649 -1.89708 1.39687 0.573432 0.470196 2.78918 1.15907 0.926471 2.78919 1.15903 0.926461 -16.3493 -4.97848 -14.1954 43.6678 -3.49779 21.5111 -166.811 -7.87389 -96.5622 -23.239 6.84382 82.8067 -30.5334 3.8631 -18.6549 149.74 -87.9232 152.063 -166.633 -10.0911 72.3187 -10.3244 -4.47998 -85.0969 -22.8743 -2.69839 14.1409 2.95373 82.0921 -2.7617 -15.662 2.11139 -172.438 -54.425 0.66237 -0.0990506 -5.26106 4.00022 0.489685 90 1.00386e-014 1.15295e-014 -9.22161 -5.76885 -172.337 -23.3707 -0.647904 0.340329 0.713396 3.60448 0.194651 90 3.18055e-015 -7.95139e-016 
23.8044 89.5681 80.5972 92.2263 0.186034 -2.08815 1.43221 0.855028 0.46801 2.858 1.72196 0.914782 2.85797 1.72197 0.914769 -16.5044 -4.93348 -14.239 43.7216 -3.5135 21.392 -166.684 -7.90437 -96.5711 -24.6178 7.55595 83.6253 -30.0737 3.74649 -18.4175 138.854 -88.3237 141.14 -166.478 -10.0847 72.3262 -11.6359 -3.80333 -85.0735 -24.1063 -2.97081 14.8049 3.25682 82.9526 -3.06484 -18.6632 0.392428 -172.654 -52.8412 0.645281 -0.216542 -2.42761 0.585271 0.0117409 90 -3.29983e-014 -3.33958e-014 -8.06319 -4.33773 -171.924 -24.7471 -0.661948 0.293549 2.24902 3.38836 -0.0573317 90 -7.95139e-015 -8.74653e-015 
